<svg width="48" height="29" viewBox="0 0 48 29" fill="none" xmlns="http://www.w3.org/2000/svg">
<path d="M47.8081 1.49761C47.5646 0.907384 47.0987 0.438352 46.5124 0.19324C46.224 0.0694672 45.9142 0.00381646 45.6007 0H33.6042C32.9678 0 32.3576 0.25449 31.9076 0.707484C31.4577 1.16048 31.2049 1.77487 31.2049 2.4155C31.2049 3.05613 31.4577 3.67052 31.9076 4.12352C32.3576 4.57651 32.9678 4.831 33.6042 4.831H39.8184L26.4063 18.3336L18.5125 10.3625C18.2895 10.1361 18.0241 9.95639 17.7318 9.83376C17.4394 9.71113 17.1258 9.64799 16.809 9.64799C16.4923 9.64799 16.1787 9.71113 15.8863 9.83376C15.5939 9.95639 15.3286 10.1361 15.1055 10.3625L0.70971 24.8555C0.484827 25.08 0.306333 25.3472 0.184523 25.6415C0.0627136 25.9359 0 26.2516 0 26.5705C0 26.8894 0.0627136 27.2051 0.184523 27.4994C0.306333 27.7938 0.484827 28.0609 0.70971 28.2855C0.932757 28.5119 1.19812 28.6916 1.4905 28.8142C1.78288 28.9369 2.09648 29 2.41322 29C2.72995 29 3.04356 28.9369 3.33593 28.8142C3.62831 28.6916 3.89368 28.5119 4.11672 28.2855L16.809 15.4834L24.7028 23.4545C24.9258 23.6809 25.1912 23.8606 25.4835 23.9832C25.7759 24.1059 26.0895 24.169 26.4063 24.169C26.723 24.169 27.0366 24.1059 27.329 23.9832C27.6214 23.8606 27.8867 23.6809 28.1098 23.4545L43.2014 8.23685V14.493C43.2014 15.1336 43.4542 15.748 43.9041 16.201C44.3541 16.654 44.9644 16.9085 45.6007 16.9085C46.237 16.9085 46.8473 16.654 47.2973 16.201C47.7472 15.748 48 15.1336 48 14.493V2.4155C47.9962 2.09985 47.931 1.78801 47.8081 1.49761Z" fill="white"/>
</svg>
